<svg viewBox="0 0 24 24" fill="none" xmlns="http://www.w3.org/2000/svg" id="Accessibility--Streamline-Solar-Ar">
  <desc>
    Accessibility Streamline Icon: https://streamlinehq.com
  </desc>
  <path stroke="hsl(210, 74%, 15%)" d="M2 12a10 10 0 1 0 20 0 10 10 0 1 0 -20 0" stroke-width="1.5"></path>
  <path d="M14 7c0 1.10457 -0.8954 2 -2 2s-2 -0.89543 -2 -2 0.8954 -2 2 -2 2 0.89543 2 2Z" stroke="hsl(210, 74%, 15%)" stroke-width="1.5"></path>
  <path d="M18 10s-3.5373 1.5 -6 1.5c-2.46273 0 -6 -1.5 -6 -1.5" stroke="hsl(210, 74%, 15%)" stroke-linecap="round" stroke-width="1.5"></path>
  <path d="M12 12v1.4522m0 0c0 0.5753 0.1654 1.1384 0.4765 1.6223L15 19m-3 -5.5478c0 0.5753 -0.1654 1.1384 -0.4765 1.6223L9 19" stroke="hsl(210, 74%, 15%)" stroke-linecap="round" stroke-width="1.5"></path>
</svg>